# Blender 4.4.3
# www.blender.org
mtllib ThatBirdThatIhate.mtl
o Circle
v 0.596956 0.000000 -1.303871
v 0.596956 0.766396 -1.054854
v 0.596956 1.240055 -0.402918
v 0.596956 1.240055 0.402918
v 0.596956 0.766396 1.054854
v 0.596956 -0.000000 1.303871
v 0.596956 -0.766397 1.054854
v 0.596956 -1.240055 0.402919
v 0.596956 -1.240055 -0.402919
v 0.596956 -0.766396 -1.054854
v 1.544959 0.000000 -1.030396
v 1.544959 0.605652 -0.833608
v 1.544959 0.979965 -0.318410
v 1.544959 0.979965 0.318410
v 1.544959 0.605652 0.833608
v 1.544959 -0.000000 1.030396
v 1.544959 -0.605652 0.833608
v 1.544959 -0.979965 0.318410
v 1.544959 -0.979965 -0.318410
v 1.544959 -0.605652 -0.833608
v 1.659370 0.012825 -0.864892
v -2.778314 0.006099 -1.036946
v -2.778314 0.626633 -0.835322
v -2.778314 1.010145 -0.307464
v -2.778314 1.010145 0.345004
v -2.778314 0.626633 0.872863
v -2.778314 0.006099 1.074487
v -2.778314 -0.614436 0.872863
v -2.778314 -0.997947 0.345005
v -2.778314 -0.997947 -0.307464
v -2.778314 -0.614436 -0.835322
v -3.812885 -0.000000 -0.749374
v -3.812885 0.232261 -0.606256
v -3.812885 0.375807 -0.231569
v -3.812885 0.375807 0.231569
v -3.812885 0.232261 0.606256
v -3.812885 -0.000000 0.749374
v -3.812885 -0.232261 0.606256
v -3.812885 -0.375807 0.231569
v -3.812885 -0.375807 -0.231569
v -3.812885 -0.232261 -0.606256
v -4.045025 -0.023871 0.001832
v 1.544959 -0.605652 -0.833608
v 1.544959 -0.979965 -0.318410
v 0.000000 -1.240055 -0.402919
v 1.659370 0.531572 -0.696341
v 1.659370 0.852175 -0.255069
v 1.659370 0.852175 0.290374
v 1.659370 0.531572 0.731646
v 1.659370 0.012825 0.900197
v 1.659370 -0.505922 0.731646
v 1.659370 -0.826525 0.290374
v 1.659370 -0.826525 -0.255069
v 1.659370 -0.505922 -0.696341
v 1.971624 0.012825 -0.768700
v 1.971624 0.475032 -0.618520
v 1.971624 0.760691 -0.225344
v 1.971624 0.760691 0.260649
v 1.971624 0.475032 0.653825
v 1.971624 0.012825 0.804005
v 1.971624 -0.449381 0.653825
v 1.971624 -0.735041 0.260649
v 1.971624 -0.735041 -0.225344
v 1.971624 -0.449381 -0.618520
v 2.244368 0.012825 -0.497637
v 2.244368 0.315705 -0.399225
v 2.244368 0.502894 -0.141581
v 2.244368 0.502894 0.176885
v 2.244368 0.315705 0.434530
v 2.244368 0.012825 0.532942
v 2.244368 -0.290054 0.434530
v 2.244368 -0.477244 0.176886
v 2.244368 -0.477244 -0.141581
v 2.244368 -0.290054 -0.399225
v 2.433853 0.021392 0.017652
v 3.140586 -0.304354 0.017652
v -6.623865 0.348738 -1.531848
v -6.623865 0.543004 -0.578035
v -6.623865 0.543004 0.600943
v -3.820302 -0.029763 0.709995
v -3.820302 0.189158 0.575097
v -3.820302 0.324458 0.221932
v -3.820302 0.324458 -0.214605
v -3.820302 0.189158 -0.567771
v -3.820302 -0.029763 -0.702669
v -6.623865 0.348738 1.554756
v -6.623865 0.034409 1.919080
v -6.613217 0.077143 2.025434
v -6.613217 0.410627 1.638909
v -6.613217 0.616731 0.626972
v -6.613217 0.616731 -0.623850
v -6.613217 0.410627 -1.635787
v -6.613217 0.077143 -2.022312
v -6.623865 0.034409 -1.896172
v 0.596956 0.456079 1.410520
v 0.596956 0.274494 1.511499
v -2.778314 0.422965 1.228529
v -2.778314 0.275939 1.282114
v -1.097117 0.763405 1.043618
v -1.097118 1.237801 0.390668
v -1.097117 0.763405 -1.069374
v -1.097117 -0.004184 -1.318779
v -1.097117 -1.246170 -0.416424
v -1.097117 -1.246170 0.390668
v -1.097117 -0.004184 1.293023
v -1.097117 1.237801 -0.416423
v -1.097117 -0.771774 -1.069374
v -1.097117 -0.771774 1.043618
v -1.097117 0.455370 1.399284
v -1.097117 0.273502 1.500650
v 0.931144 0.775670 3.337780
v 0.931144 0.603993 3.433249
v -2.259947 0.744362 3.165720
v -2.259947 0.605359 3.216381
v -0.670488 0.775000 3.327157
v -0.670488 0.603056 3.422992
v 0.931144 0.775670 3.337780
v 0.931144 0.603993 3.433249
v -2.259947 0.744362 3.165720
v -2.259947 0.605359 3.216381
v -0.670488 0.775000 3.327157
v -0.670488 0.603056 3.422992
v 1.514441 0.429345 5.262340
v 1.514441 0.298142 5.335301
v -1.552418 0.405418 5.130844
v -1.552418 0.299186 5.169561
v -0.337684 0.428833 5.254221
v -0.337684 0.297425 5.327462
v 1.004840 0.733113 7.111232
v 1.004840 0.555580 7.209957
v -1.469383 0.700737 6.933303
v -1.469383 0.556993 6.985692
v -0.337362 0.732420 7.100246
v -0.337362 0.554611 7.199350
v -2.206447 0.414219 9.625746
v 2.016234 0.049735 0.797920
v 2.016234 0.441594 0.670598
v 2.247466 0.049735 0.568112
v 2.247466 0.306517 0.484679
v 0.596956 0.000000 1.303871
v 0.596956 0.766396 1.054854
v 0.596956 1.240055 0.402918
v 0.596956 1.240055 -0.402918
v 0.596956 0.766396 -1.054854
v 0.596956 -0.000000 -1.303871
v 0.596956 -0.766397 -1.054854
v 0.596956 -1.240055 -0.402919
v 0.596956 -1.240055 0.402919
v 0.596956 -0.766396 1.054854
v 1.544959 0.000000 1.030396
v 1.544959 0.605652 0.833608
v 1.544959 0.979965 0.318410
v 1.544959 0.979965 -0.318410
v 1.544959 0.605652 -0.833608
v 1.544959 -0.000000 -1.030396
v 1.544959 -0.605652 -0.833608
v 1.544959 -0.979965 -0.318410
v 1.544959 -0.979965 0.318410
v 1.544959 -0.605652 0.833608
v 1.659370 0.012825 0.864892
v -2.778314 0.006099 1.036946
v -2.778314 0.626633 0.835322
v -2.778314 1.010145 0.307464
v -2.778314 1.010145 -0.345004
v -2.778314 0.626633 -0.872863
v -2.778314 0.006099 -1.074487
v -2.778314 -0.614436 -0.872863
v -2.778314 -0.997947 -0.345005
v -2.778314 -0.997947 0.307464
v -2.778314 -0.614436 0.835322
v -3.812885 -0.000000 0.749374
v -3.812885 0.232261 0.606256
v -3.812885 0.375807 0.231569
v -3.812885 0.375807 -0.231569
v -3.812885 0.232261 -0.606256
v -3.812885 -0.000000 -0.749374
v -3.812885 -0.232261 -0.606256
v -3.812885 -0.375807 -0.231569
v -3.812885 -0.375807 0.231569
v -3.812885 -0.232261 0.606256
v -4.045025 -0.023871 -0.001832
v 1.544959 -0.605652 0.833608
v 1.544959 -0.979965 0.318410
v 0.000000 -1.240055 0.402919
v 1.659370 0.531572 0.696341
v 1.659370 0.852175 0.255069
v 1.659370 0.852175 -0.290374
v 1.659370 0.531572 -0.731646
v 1.659370 0.012825 -0.900197
v 1.659370 -0.505922 -0.731646
v 1.659370 -0.826525 -0.290374
v 1.659370 -0.826525 0.255069
v 1.659370 -0.505922 0.696341
v 1.971624 0.012825 0.768700
v 1.971624 0.475032 0.618520
v 1.971624 0.760691 0.225344
v 1.971624 0.760691 -0.260649
v 1.971624 0.475032 -0.653825
v 1.971624 0.012825 -0.804005
v 1.971624 -0.449381 -0.653825
v 1.971624 -0.735041 -0.260649
v 1.971624 -0.735041 0.225344
v 1.971624 -0.449381 0.618520
v 2.244368 0.012825 0.497637
v 2.244368 0.315705 0.399225
v 2.244368 0.502894 0.141581
v 2.244368 0.502894 -0.176885
v 2.244368 0.315705 -0.434530
v 2.244368 0.012825 -0.532942
v 2.244368 -0.290054 -0.434530
v 2.244368 -0.477244 -0.176886
v 2.244368 -0.477244 0.141581
v 2.244368 -0.290054 0.399225
v 2.433853 0.021392 -0.017652
v 3.140586 -0.304354 -0.017652
v -6.623865 0.348738 1.531848
v -6.623865 0.543004 0.578035
v -6.623865 0.543004 -0.600943
v -3.820302 -0.029763 -0.709995
v -3.820302 0.189158 -0.575097
v -3.820302 0.324458 -0.221932
v -3.820302 0.324458 0.214605
v -3.820302 0.189158 0.567771
v -3.820302 -0.029763 0.702669
v -6.623865 0.348738 -1.554756
v -6.623865 0.034409 -1.919080
v -6.613217 0.077143 -2.025434
v -6.613217 0.410627 -1.638909
v -6.613217 0.616731 -0.626972
v -6.613217 0.616731 0.623850
v -6.613217 0.410627 1.635787
v -6.613217 0.077143 2.022312
v -6.623865 0.034409 1.896172
v 0.596956 0.456079 -1.410520
v 0.596956 0.274494 -1.511499
v -2.778314 0.422965 -1.228529
v -2.778314 0.275939 -1.282114
v -1.097117 0.763405 -1.043618
v -1.097118 1.237801 -0.390668
v -1.097117 0.763405 1.069374
v -1.097117 -0.004184 1.318779
v -1.097117 -1.246170 0.416424
v -1.097117 -1.246170 -0.390668
v -1.097117 -0.004184 -1.293023
v -1.097117 1.237801 0.416423
v -1.097117 -0.771774 1.069374
v -1.097117 -0.771774 -1.043618
v -1.097117 0.455370 -1.399284
v -1.097117 0.273502 -1.500650
v 0.931144 0.775670 -3.337780
v 0.931144 0.603993 -3.433249
v -2.259947 0.744362 -3.165720
v -2.259947 0.605359 -3.216381
v -0.670488 0.775000 -3.327157
v -0.670488 0.603056 -3.422992
v 0.931144 0.775670 -3.337780
v 0.931144 0.603993 -3.433249
v -2.259947 0.744362 -3.165720
v -2.259947 0.605359 -3.216381
v -0.670488 0.775000 -3.327157
v -0.670488 0.603056 -3.422992
v 1.514441 0.429345 -5.262340
v 1.514441 0.298142 -5.335301
v -1.552418 0.405418 -5.130844
v -1.552418 0.299186 -5.169561
v -0.337684 0.428833 -5.254221
v -0.337684 0.297425 -5.327462
v 1.004840 0.733113 -7.111232
v 1.004840 0.555580 -7.209957
v -1.469383 0.700737 -6.933303
v -1.469383 0.556993 -6.985692
v -0.337362 0.732420 -7.100246
v -0.337362 0.554611 -7.199350
v -2.206447 0.414219 -9.625746
v 2.016234 0.049735 -0.797920
v 2.016234 0.441594 -0.670598
v 2.247466 0.049735 -0.568112
v 2.247466 0.306517 -0.484679
vn -0.2646 -0.7802 -0.5668
vn -0.2646 -0.2980 0.9172
vn -0.2646 0.9644 -0.0000
vn -0.2646 -0.2980 -0.9172
vn -0.2646 -0.7802 0.5668
vn -0.2646 0.7802 0.5668
vn -0.2646 0.2980 -0.9172
vn -0.2646 -0.9644 -0.0000
vn -0.2646 0.2980 0.9172
vn -0.2646 0.7802 -0.5668
vn -0.7757 0.5106 -0.3710
vn 0.8158 -0.4679 -0.3400
vn -0.8158 0.1787 0.5501
vn -0.7450 -0.6670 -0.0000
vn -0.7234 -0.2134 -0.6567
vn -0.7234 -0.5586 -0.4058
vn -0.7450 0.2061 -0.6344
vn 0.1245 -0.8027 -0.5832
vn 0.1556 -0.3053 0.9395
vn 0.1461 0.9893 -0.0000
vn 0.1053 0.6009 -0.7923
vn 0.1461 -0.8003 0.5815
vn 0.1556 0.7992 0.5806
vn 0.1245 0.3066 -0.9437
vn 0.1342 -0.9910 -0.0000
vn 0.1593 0.3051 0.9389
vn 0.1342 0.8017 -0.5825
vn 0.5227 -0.8525 -0.0000
vn 0.2870 0.3590 0.8881
vn 0.4556 0.7687 -0.4489
vn 0.4627 -0.7655 -0.4470
vn 0.2909 -0.3586 0.8870
vn 0.5153 0.8570 -0.0000
vn 0.3199 -0.3551 -0.8784
vn 0.4498 -0.7712 0.4504
vn 0.4425 0.7744 0.4522
vn 0.3162 0.3556 -0.8796
vn 0.2945 0.6531 -0.6976
vn -0.1399 0.9182 0.3705
vn -0.1650 0.8911 -0.4228
vn -0.1337 -0.9609 -0.2423
vn 0.8732 -0.4550 0.1743
vn -0.9414 -0.1589 0.2974
vn 0.8403 -0.5421 -0.0000
vn -0.9277 -0.2302 -0.2940
vn 0.0777 0.9970 -0.0000
vn 0.1224 0.9624 -0.2427
vn -0.8017 -0.1847 0.5685
vn -0.0000 0.3090 -0.9511
vn 1.0000 -0.0000 -0.0000
vn -0.8017 0.5978 -0.0000
vn -0.7757 -0.5106 0.3710
vn -0.2812 -0.7764 -0.5641
vn -0.2812 0.7764 -0.5641
vn -0.2812 0.2966 0.9127
vn -0.2812 -0.9597 -0.0000
vn -0.2812 0.2966 -0.9127
vn 0.2812 -0.7764 -0.5641
vn -0.2812 -0.7764 0.5641
vn -0.2812 -0.2966 -0.9127
vn -0.2812 0.9597 -0.0000
vn -0.2812 -0.2966 0.9127
vn -0.6869 0.5879 -0.4272
vn -0.6869 0.2246 0.6912
vn -0.6869 -0.7267 -0.0000
vn -0.6869 0.2246 -0.6912
vn 0.6869 -0.5879 -0.4272
vn -0.6869 -0.5879 0.4272
vn 0.1250 -0.3066 -0.9436
vn -0.6869 0.7267 -0.0000
vn -0.6869 -0.2246 0.6912
vn -0.6869 -0.5879 -0.4272
vn -0.3160 -0.6856 -0.6558
vn -0.9334 0.1109 0.3414
vn -0.9305 -0.3662 -0.0000
vn -0.9334 0.1109 -0.3414
vn 0.2521 -0.7829 -0.5688
vn -0.9310 -0.2954 0.2146
vn -0.9320 -0.1120 -0.3446
vn 0.3160 0.6856 -0.6558
vn -0.9320 -0.1120 0.3446
vn -0.9310 -0.2954 -0.2146
vn -0.1894 0.9819 -0.0000
vn -0.2521 0.7829 -0.5688
vn 0.8348 0.5506 -0.0000
vn 0.9364 -0.1840 -0.2987
vn 0.8713 0.4583 0.1756
vn 0.9358 -0.1849 0.3001
vn 0.9372 0.1829 -0.2969
vn 0.8739 -0.4539 -0.1739
vn 0.9378 0.1821 0.2956
vn 0.8706 0.4594 -0.1760
vn -0.1335 -0.9610 0.2423
vn -0.3152 -0.6486 -0.6928
vn 0.2980 0.6524 0.6968
vn -0.3145 -0.6488 0.6930
vn 0.9907 -0.1335 -0.0272
vn 0.9946 -0.0787 -0.0679
vn 0.9897 -0.1429 -0.0000
vn 0.9957 -0.0700 0.0604
vn 0.9916 -0.1271 0.0259
vn -0.0857 -0.9963 -0.0000
vn 0.1237 0.9622 0.2426
vn 0.0005 0.9856 -0.1691
vn 0.0052 -0.7547 -0.6561
vn -1.0000 -0.0000 -0.0000
vn 0.0997 -0.8077 -0.5811
vn 0.9658 -0.0888 -0.2437
vn 0.0013 0.8090 -0.5878
vn -0.0091 0.3090 0.9510
vn 0.0013 -1.0000 -0.0000
vn 0.0053 0.3090 -0.9510
vn -0.0076 0.8090 0.5878
vn -0.0036 -0.8090 0.5878
vn 0.0042 0.6010 -0.7992
vn -0.0036 1.0000 -0.0000
vn -0.0076 -0.3090 0.9510
vn 0.0053 -0.8090 -0.5878
vn 0.0025 -0.9866 0.1630
vn -0.9839 0.0869 0.1562
vn -0.0007 -0.9865 0.1637
vn 0.0241 0.9844 -0.1741
vn 0.0375 -0.9824 -0.1830
vn 0.0013 -0.9842 -0.1773
vn 0.0237 0.9900 -0.1388
vn 0.0003 0.9907 -0.1360
vn -0.9331 0.1748 0.3143
vn -0.0013 0.9873 0.1589
vn -0.0196 0.9866 0.1618
vn 0.9256 -0.1296 -0.3556
vn 0.0418 -0.9947 -0.0944
vn 0.0015 -0.9923 -0.1239
vn 0.9989 -0.0158 -0.0434
vn -0.0006 -0.9868 0.1621
vn 0.0031 -0.9868 0.1619
vn -0.9607 -0.1349 -0.2426
vn -0.5367 -0.4101 -0.7374
vn -0.0012 0.9984 0.0569
vn -0.0077 0.9986 0.0519
vn 0.9570 0.0993 0.2726
vn -0.6869 -0.2246 -0.6912
vn -0.9976 0.0213 0.0655
vn -0.5680 0.5923 -0.5715
vn -0.5680 -0.8151 -0.1142
vn -0.7757 0.5106 0.3710
vn 0.8158 -0.4679 0.3400
vn -0.8158 0.1787 -0.5501
vn -0.7234 -0.2134 0.6567
vn -0.7234 -0.5586 0.4058
vn -0.7450 0.2061 0.6344
vn 0.1245 -0.8027 0.5832
vn 0.1556 -0.3053 -0.9395
vn 0.1053 0.6009 0.7923
vn 0.1461 -0.8003 -0.5815
vn 0.1556 0.7992 -0.5806
vn 0.1245 0.3066 0.9437
vn 0.1593 0.3051 -0.9389
vn 0.1342 0.8017 0.5825
vn 0.2870 0.3590 -0.8881
vn 0.4556 0.7687 0.4489
vn 0.4627 -0.7655 0.4470
vn 0.2909 -0.3586 -0.8870
vn 0.3199 -0.3551 0.8784
vn 0.4498 -0.7712 -0.4504
vn 0.4425 0.7744 -0.4522
vn 0.3162 0.3556 0.8796
vn 0.2945 0.6531 0.6976
vn -0.1399 0.9182 -0.3705
vn -0.1650 0.8911 0.4228
vn -0.1337 -0.9609 0.2423
vn 0.8732 -0.4550 -0.1743
vn -0.9414 -0.1589 -0.2974
vn -0.9277 -0.2302 0.2940
vn 0.1224 0.9624 0.2427
vn -0.8017 -0.1847 -0.5685
vn -0.0000 0.3090 0.9511
vn -0.7757 -0.5106 -0.3710
vn -0.2812 0.7764 0.5641
vn 0.2812 -0.7764 0.5641
vn -0.6869 0.5879 0.4272
vn 0.6869 -0.5879 0.4272
vn 0.1250 -0.3066 0.9436
vn -0.3160 -0.6856 0.6558
vn 0.2521 -0.7829 0.5688
vn 0.3160 0.6856 0.6558
vn -0.2521 0.7829 0.5688
vn 0.9364 -0.1840 0.2987
vn 0.8713 0.4583 -0.1756
vn 0.9358 -0.1849 -0.3001
vn 0.9372 0.1829 0.2969
vn 0.8739 -0.4539 0.1739
vn 0.9378 0.1821 -0.2956
vn 0.8706 0.4594 0.1760
vn -0.1335 -0.9610 -0.2423
vn -0.3152 -0.6486 0.6928
vn 0.2980 0.6524 -0.6968
vn -0.3145 -0.6488 -0.6930
vn 0.9907 -0.1335 0.0272
vn 0.9946 -0.0787 0.0679
vn 0.9957 -0.0700 -0.0604
vn 0.9916 -0.1271 -0.0259
vn 0.1237 0.9622 -0.2426
vn 0.0005 0.9856 0.1691
vn 0.0052 -0.7547 0.6561
vn 0.0997 -0.8077 0.5811
vn 0.9658 -0.0888 0.2437
vn 0.0013 0.8090 0.5878
vn -0.0091 0.3090 -0.9510
vn 0.0053 0.3090 0.9510
vn -0.0076 0.8090 -0.5878
vn -0.0036 -0.8090 -0.5878
vn 0.0042 0.6010 0.7992
vn -0.0076 -0.3090 -0.9510
vn 0.0053 -0.8090 0.5878
vn 0.0025 -0.9866 -0.1630
vn -0.9839 0.0869 -0.1562
vn -0.0007 -0.9865 -0.1637
vn 0.0241 0.9844 0.1741
vn 0.0375 -0.9824 0.1830
vn 0.0013 -0.9842 0.1773
vn 0.0237 0.9900 0.1388
vn 0.0003 0.9907 0.1360
vn -0.9331 0.1748 -0.3143
vn -0.0013 0.9873 -0.1589
vn -0.0196 0.9866 -0.1618
vn 0.9256 -0.1296 0.3556
vn 0.0418 -0.9947 0.0944
vn 0.0015 -0.9923 0.1239
vn 0.9989 -0.0158 0.0434
vn -0.0006 -0.9868 -0.1621
vn 0.0031 -0.9868 -0.1619
vn -0.9607 -0.1349 0.2426
vn -0.5367 -0.4101 0.7374
vn -0.0012 0.9984 -0.0569
vn -0.0077 0.9986 -0.0519
vn 0.9570 0.0993 -0.2726
vn -0.9976 0.0213 -0.0655
vn -0.5680 0.5923 0.5715
vn -0.5680 -0.8151 0.1142
vt 0.000000 0.000000
s 0
f 5/1/1 4/1/1 14/1/1 15/1/1
f 2/1/2 1/1/2 11/1/2 12/1/2
f 9/1/3 8/1/3 18/1/3 19/1/3
f 6/1/4 5/1/4 15/1/4 16/1/4
f 3/1/5 2/1/5 12/1/5 13/1/5
f 10/1/6 9/1/6 19/1/6 20/1/6
f 7/1/7 6/1/7 16/1/7 17/1/7
f 4/1/8 3/1/8 13/1/8 14/1/8
f 1/1/9 10/1/9 20/1/9 11/1/9
f 8/1/10 7/1/10 17/1/10 18/1/10
f 18/1/11 17/1/11 51/1/11 52/1/11
f 19/1/12 20/1/12 54/1/12 53/1/12
f 11/1/13 20/1/13 54/1/13 21/1/13
f 14/1/14 13/1/14 47/1/14 48/1/14
f 16/1/15 15/1/15 49/1/15 50/1/15
f 15/1/16 14/1/16 48/1/16 49/1/16
f 17/1/17 16/1/17 50/1/17 51/1/17
f 100/1/18 99/1/18 26/1/18 25/1/18
f 102/1/19 101/1/19 23/1/19 22/1/19
f 104/1/20 103/1/20 30/1/20 29/1/20
f 105/1/21 27/1/21 98/1/21 110/1/21
f 101/1/22 106/1/22 24/1/22 23/1/22
f 103/1/23 107/1/23 31/1/23 30/1/23
f 105/1/24 108/1/24 28/1/24 27/1/24
f 106/1/25 100/1/25 25/1/25 24/1/25
f 107/1/26 102/1/26 22/1/26 31/1/26
f 108/1/27 104/1/27 29/1/27 28/1/27
f 24/1/28 25/1/28 35/1/28 34/1/28
f 31/1/29 22/1/29 32/1/29 41/1/29
f 28/1/30 29/1/30 39/1/30 38/1/30
f 25/1/31 26/1/31 36/1/31 35/1/31
f 22/1/32 23/1/32 33/1/32 32/1/32
f 29/1/33 30/1/33 40/1/33 39/1/33
f 26/1/34 27/1/34 37/1/34 36/1/34
f 23/1/35 24/1/35 34/1/35 33/1/35
f 30/1/36 31/1/36 41/1/36 40/1/36
f 27/1/37 28/1/37 38/1/37 37/1/37
f 84/1/38 85/1/38 94/1/38 77/1/38
f 85/1/39 32/1/39 93/1/39 94/1/39
f 37/1/40 80/1/40 87/1/40 88/1/40
f 35/1/41 36/1/41 89/1/41 90/1/41
f 84/1/42 83/1/42 42/1/42
f 80/1/43 37/1/43 42/1/43
f 83/1/44 82/1/44 42/1/44
f 32/1/45 85/1/45 42/1/45
f 82/1/46 83/1/46 78/1/46 79/1/46
f 83/1/47 84/1/47 77/1/47 78/1/47
f 12/1/48 11/1/48 21/1/48 46/1/48
f 19/1/49 9/1/49 45/1/49 44/1/49
f 20/1/50 19/1/50 44/1/50 43/1/50
f 19/1/51 18/1/51 52/1/51 53/1/51
f 13/1/52 12/1/52 46/1/52 47/1/52
f 49/1/53 48/1/53 58/1/53 59/1/53
f 52/1/54 51/1/54 61/1/54 62/1/54
f 21/1/55 54/1/55 64/1/55 55/1/55
f 48/1/56 47/1/56 57/1/56 58/1/56
f 51/1/57 50/1/57 60/1/57 61/1/57
f 53/1/58 54/1/58 64/1/58 63/1/58
f 47/1/59 46/1/59 56/1/59 57/1/59
f 50/1/60 49/1/60 59/1/60 60/1/60
f 53/1/61 52/1/61 62/1/61 63/1/61
f 46/1/62 21/1/62 55/1/62 56/1/62
f 62/1/63 61/1/63 71/1/63 72/1/63
f 55/1/64 64/1/64 74/1/64 65/1/64
f 58/1/65 57/1/65 67/1/65 68/1/65
f 61/1/66 60/1/66 70/1/66 71/1/66
f 63/1/67 64/1/67 74/1/67 73/1/67
f 57/1/68 56/1/68 66/1/68 67/1/68
f 60/1/69 59/1/69 137/1/69 136/1/69
f 63/1/70 62/1/70 72/1/70 73/1/70
f 56/1/71 55/1/71 65/1/71 66/1/71
f 59/1/72 58/1/72 68/1/72 69/1/72
f 71/1/73 75/1/73 76/1/73
f 65/1/74 74/1/74 75/1/74
f 68/1/75 67/1/75 75/1/75
f 71/1/76 70/1/76 75/1/76
f 73/1/77 74/1/77 76/1/77
f 67/1/78 66/1/78 75/1/78
f 70/1/79 69/1/79 75/1/79
f 74/1/80 75/1/80 76/1/80
f 66/1/81 65/1/81 75/1/81
f 69/1/82 68/1/82 75/1/82
f 73/1/83 72/1/83 76/1/83
f 72/1/84 71/1/84 76/1/84
f 39/1/85 40/1/85 42/1/85
f 81/1/86 80/1/86 42/1/86
f 40/1/87 41/1/87 42/1/87
f 85/1/88 84/1/88 42/1/88
f 37/1/89 38/1/89 42/1/89
f 82/1/90 81/1/90 42/1/90
f 41/1/91 32/1/91 42/1/91
f 38/1/92 39/1/92 42/1/92
f 33/1/93 34/1/93 91/1/93 92/1/93
f 36/1/94 37/1/94 88/1/94 89/1/94
f 80/1/95 81/1/95 86/1/95 87/1/95
f 32/1/96 33/1/96 92/1/96 93/1/96
f 90/1/97 89/1/97 86/1/97 79/1/97
f 89/1/98 88/1/98 87/1/98 86/1/98
f 91/1/99 90/1/99 79/1/99 78/1/99
f 93/1/100 92/1/100 77/1/100 94/1/100
f 92/1/101 91/1/101 78/1/101 77/1/101
f 34/1/102 35/1/102 90/1/102 91/1/102
f 81/1/103 82/1/103 79/1/103 86/1/103
f 96/1/104 110/1/104 116/1/104 112/1/104
f 99/1/105 5/1/105 95/1/105 109/1/105
f 5/1/106 6/1/106 96/1/106 95/1/106
f 27/1/50 26/1/50 97/1/50 98/1/50
f 26/1/107 99/1/107 109/1/107 97/1/107
f 98/1/108 97/1/108 113/1/108 114/1/108
f 7/1/109 8/1/109 104/1/109 108/1/109
f 10/1/110 1/1/110 102/1/110 107/1/110
f 3/1/111 4/1/111 100/1/111 106/1/111
f 6/1/112 7/1/112 108/1/112 105/1/112
f 9/1/113 10/1/113 107/1/113 103/1/113
f 2/1/114 3/1/114 106/1/114 101/1/114
f 6/1/115 105/1/115 110/1/115 96/1/115
f 8/1/116 9/1/116 103/1/116 104/1/116
f 1/1/117 2/1/117 101/1/117 102/1/117
f 4/1/118 5/1/118 99/1/118 100/1/118
f 113/1/50 115/1/50 121/1/50 119/1/50
f 115/1/50 111/1/50 117/1/50 121/1/50
f 97/1/119 109/1/119 115/1/119 113/1/119
f 95/1/120 96/1/120 112/1/120 111/1/120
f 109/1/121 95/1/121 111/1/121 115/1/121
f 110/1/122 98/1/122 114/1/122 116/1/122
f 119/1/123 121/1/123 127/1/123 125/1/123
f 121/1/124 117/1/124 123/1/124 127/1/124
f 111/1/50 112/1/50 118/1/50 117/1/50
f 112/1/50 116/1/50 122/1/50 118/1/50
f 116/1/50 114/1/50 120/1/50 122/1/50
f 114/1/50 113/1/50 119/1/50 120/1/50
f 128/1/125 126/1/125 132/1/125 134/1/125
f 124/1/126 128/1/126 134/1/126 130/1/126
f 117/1/127 118/1/127 124/1/127 123/1/127
f 118/1/128 122/1/128 128/1/128 124/1/128
f 122/1/129 120/1/129 126/1/129 128/1/129
f 120/1/130 119/1/130 125/1/130 126/1/130
f 131/1/131 133/1/131 135/1/131
f 133/1/132 129/1/132 135/1/132
f 126/1/133 125/1/133 131/1/133 132/1/133
f 127/1/134 123/1/134 129/1/134 133/1/134
f 125/1/135 127/1/135 133/1/135 131/1/135
f 123/1/136 124/1/136 130/1/136 129/1/136
f 129/1/137 130/1/137 135/1/137
f 130/1/138 134/1/138 135/1/138
f 134/1/139 132/1/139 135/1/139
f 132/1/140 131/1/140 135/1/140
f 136/1/141 137/1/141 139/1/141 138/1/141
f 69/1/142 70/1/142 138/1/142 139/1/142
f 70/1/143 60/1/143 136/1/143 138/1/143
f 59/1/144 69/1/144 139/1/144 137/1/144
f 144/1/5 154/1/5 153/1/5 143/1/5
f 141/1/4 151/1/4 150/1/4 140/1/4
f 148/1/3 158/1/3 157/1/3 147/1/3
f 145/1/2 155/1/2 154/1/2 144/1/2
f 142/1/1 152/1/1 151/1/1 141/1/1
f 149/1/10 159/1/10 158/1/10 148/1/10
f 146/1/9 156/1/9 155/1/9 145/1/9
f 143/1/8 153/1/8 152/1/8 142/1/8
f 140/1/7 150/1/7 159/1/7 149/1/7
f 147/1/6 157/1/6 156/1/6 146/1/6
f 157/1/145 191/1/145 190/1/145 156/1/145
f 158/1/146 192/1/146 193/1/146 159/1/146
f 150/1/147 160/1/147 193/1/147 159/1/147
f 153/1/14 187/1/14 186/1/14 152/1/14
f 155/1/148 189/1/148 188/1/148 154/1/148
f 154/1/149 188/1/149 187/1/149 153/1/149
f 156/1/150 190/1/150 189/1/150 155/1/150
f 239/1/151 164/1/151 165/1/151 238/1/151
f 241/1/152 161/1/152 162/1/152 240/1/152
f 243/1/20 168/1/20 169/1/20 242/1/20
f 244/1/153 249/1/153 237/1/153 166/1/153
f 240/1/154 162/1/154 163/1/154 245/1/154
f 242/1/155 169/1/155 170/1/155 246/1/155
f 244/1/156 166/1/156 167/1/156 247/1/156
f 245/1/25 163/1/25 164/1/25 239/1/25
f 246/1/157 170/1/157 161/1/157 241/1/157
f 247/1/158 167/1/158 168/1/158 243/1/158
f 163/1/28 173/1/28 174/1/28 164/1/28
f 170/1/159 180/1/159 171/1/159 161/1/159
f 167/1/160 177/1/160 178/1/160 168/1/160
f 164/1/161 174/1/161 175/1/161 165/1/161
f 161/1/162 171/1/162 172/1/162 162/1/162
f 168/1/33 178/1/33 179/1/33 169/1/33
f 165/1/163 175/1/163 176/1/163 166/1/163
f 162/1/164 172/1/164 173/1/164 163/1/164
f 169/1/165 179/1/165 180/1/165 170/1/165
f 166/1/166 176/1/166 177/1/166 167/1/166
f 223/1/167 216/1/167 233/1/167 224/1/167
f 224/1/168 233/1/168 232/1/168 171/1/168
f 176/1/169 227/1/169 226/1/169 219/1/169
f 174/1/170 229/1/170 228/1/170 175/1/170
f 223/1/171 181/1/171 222/1/171
f 219/1/172 181/1/172 176/1/172
f 222/1/44 181/1/44 221/1/44
f 171/1/173 181/1/173 224/1/173
f 221/1/46 218/1/46 217/1/46 222/1/46
f 222/1/174 217/1/174 216/1/174 223/1/174
f 151/1/175 185/1/175 160/1/175 150/1/175
f 158/1/176 183/1/176 184/1/176 148/1/176
f 159/1/50 182/1/50 183/1/50 158/1/50
f 158/1/51 192/1/51 191/1/51 157/1/51
f 152/1/177 186/1/177 185/1/177 151/1/177
f 188/1/59 198/1/59 197/1/59 187/1/59
f 191/1/178 201/1/178 200/1/178 190/1/178
f 160/1/57 194/1/57 203/1/57 193/1/57
f 187/1/56 197/1/56 196/1/56 186/1/56
f 190/1/55 200/1/55 199/1/55 189/1/55
f 192/1/179 202/1/179 203/1/179 193/1/179
f 186/1/53 196/1/53 195/1/53 185/1/53
f 189/1/62 199/1/62 198/1/62 188/1/62
f 192/1/61 202/1/61 201/1/61 191/1/61
f 185/1/60 195/1/60 194/1/60 160/1/60
f 201/1/180 211/1/180 210/1/180 200/1/180
f 194/1/66 204/1/66 213/1/66 203/1/66
f 197/1/65 207/1/65 206/1/65 196/1/65
f 200/1/64 210/1/64 209/1/64 199/1/64
f 202/1/181 212/1/181 213/1/181 203/1/181
f 196/1/72 206/1/72 205/1/72 195/1/72
f 199/1/182 275/1/182 276/1/182 198/1/182
f 202/1/70 212/1/70 211/1/70 201/1/70
f 195/1/141 205/1/141 204/1/141 194/1/141
f 198/1/68 208/1/68 207/1/68 197/1/68
f 210/1/183 215/1/183 214/1/183
f 204/1/76 214/1/76 213/1/76
f 207/1/75 214/1/75 206/1/75
f 210/1/74 214/1/74 209/1/74
f 212/1/184 215/1/184 213/1/184
f 206/1/82 214/1/82 205/1/82
f 209/1/81 214/1/81 208/1/81
f 213/1/185 215/1/185 214/1/185
f 205/1/79 214/1/79 204/1/79
f 208/1/78 214/1/78 207/1/78
f 212/1/83 215/1/83 211/1/83
f 211/1/186 215/1/186 210/1/186
f 178/1/85 181/1/85 179/1/85
f 220/1/187 181/1/187 219/1/187
f 179/1/188 181/1/188 180/1/188
f 224/1/189 181/1/189 223/1/189
f 176/1/190 181/1/190 177/1/190
f 221/1/191 181/1/191 220/1/191
f 180/1/192 181/1/192 171/1/192
f 177/1/193 181/1/193 178/1/193
f 172/1/194 231/1/194 230/1/194 173/1/194
f 175/1/195 228/1/195 227/1/195 176/1/195
f 219/1/196 226/1/196 225/1/196 220/1/196
f 171/1/197 232/1/197 231/1/197 172/1/197
f 229/1/198 218/1/198 225/1/198 228/1/198
f 228/1/199 225/1/199 226/1/199 227/1/199
f 230/1/99 217/1/99 218/1/99 229/1/99
f 232/1/200 233/1/200 216/1/200 231/1/200
f 231/1/201 216/1/201 217/1/201 230/1/201
f 173/1/102 230/1/102 229/1/102 174/1/102
f 220/1/202 225/1/202 218/1/202 221/1/202
f 235/1/203 251/1/203 255/1/203 249/1/203
f 238/1/204 248/1/204 234/1/204 144/1/204
f 144/1/106 234/1/106 235/1/106 145/1/106
f 166/1/50 237/1/50 236/1/50 165/1/50
f 165/1/205 236/1/205 248/1/205 238/1/205
f 237/1/206 253/1/206 252/1/206 236/1/206
f 146/1/207 247/1/207 243/1/207 147/1/207
f 149/1/208 246/1/208 241/1/208 140/1/208
f 142/1/111 245/1/111 239/1/111 143/1/111
f 145/1/209 244/1/209 247/1/209 146/1/209
f 148/1/210 242/1/210 246/1/210 149/1/210
f 141/1/211 240/1/211 245/1/211 142/1/211
f 145/1/212 235/1/212 249/1/212 244/1/212
f 147/1/116 243/1/116 242/1/116 148/1/116
f 140/1/213 241/1/213 240/1/213 141/1/213
f 143/1/214 239/1/214 238/1/214 144/1/214
f 252/1/50 258/1/50 260/1/50 254/1/50
f 254/1/50 260/1/50 256/1/50 250/1/50
f 236/1/215 252/1/215 254/1/215 248/1/215
f 234/1/216 250/1/216 251/1/216 235/1/216
f 248/1/217 254/1/217 250/1/217 234/1/217
f 249/1/218 255/1/218 253/1/218 237/1/218
f 258/1/219 264/1/219 266/1/219 260/1/219
f 260/1/220 266/1/220 262/1/220 256/1/220
f 250/1/50 256/1/50 257/1/50 251/1/50
f 251/1/50 257/1/50 261/1/50 255/1/50
f 255/1/50 261/1/50 259/1/50 253/1/50
f 253/1/50 259/1/50 258/1/50 252/1/50
f 267/1/221 273/1/221 271/1/221 265/1/221
f 263/1/222 269/1/222 273/1/222 267/1/222
f 256/1/223 262/1/223 263/1/223 257/1/223
f 257/1/224 263/1/224 267/1/224 261/1/224
f 261/1/225 267/1/225 265/1/225 259/1/225
f 259/1/226 265/1/226 264/1/226 258/1/226
f 270/1/227 274/1/227 272/1/227
f 272/1/228 274/1/228 268/1/228
f 265/1/229 271/1/229 270/1/229 264/1/229
f 266/1/230 272/1/230 268/1/230 262/1/230
f 264/1/231 270/1/231 272/1/231 266/1/231
f 262/1/232 268/1/232 269/1/232 263/1/232
f 268/1/233 274/1/233 269/1/233
f 269/1/234 274/1/234 273/1/234
f 273/1/235 274/1/235 271/1/235
f 271/1/236 274/1/236 270/1/236
f 275/1/71 277/1/71 278/1/71 276/1/71
f 208/1/237 278/1/237 277/1/237 209/1/237
f 209/1/238 277/1/238 275/1/238 199/1/238
f 198/1/239 276/1/239 278/1/239 208/1/239
